<svg xmlns="http://www.w3.org/2000/svg" width="151" height="24" viewBox="0 0 151 24">
    <g fill="none" fill-rule="evenodd">
        <g>
            <g>
                <path fill="#000" d="M3.746 15.497c0 1.612.382 2.875 1.148 3.791.765.917 1.822 1.375 3.172 1.375.584 0 1.082-.025 1.495-.076.413-.05.75-.105 1.012-.166V11.36c-.322-.222-.75-.428-1.284-.62-.534-.19-1.103-.287-1.707-.287-1.329 0-2.3.453-2.915 1.36-.614.906-.921 2.135-.921 3.685zm10.482 7.462c-.725.222-1.636.423-2.734.604-1.097.181-2.25.272-3.458.272-1.25 0-2.367-.192-3.354-.574-.987-.382-1.827-.931-2.522-1.646C1.465 20.9.93 20.034.559 19.017.186 18 0 16.857 0 15.587c0-1.248.156-2.38.468-3.398.312-1.016.77-1.888 1.375-2.613.604-.725 1.339-1.284 2.205-1.676.866-.393 1.862-.59 2.99-.59.766 0 1.44.091 2.025.273.584.18 1.087.382 1.51.604V.604L14.228 0V22.96zM29.363 13.987c0-.504-.071-.982-.212-1.435-.14-.453-.347-.846-.619-1.178-.272-.333-.604-.594-.997-.786-.393-.191-.86-.287-1.404-.287-.564 0-1.058.106-1.48.317-.424.212-.781.489-1.073.831-.292.343-.519.735-.68 1.178-.161.443-.272.897-.332 1.36h6.797zm-10.604 1.631c0-1.39.207-2.608.62-3.655.412-1.047.961-1.919 1.646-2.613.684-.695 1.47-1.219 2.356-1.571.886-.352 1.793-.529 2.72-.529 2.174 0 3.87.675 5.09 2.024 1.218 1.35 1.827 3.364 1.827 6.042 0 .201-.005.428-.015.68-.01.252-.026.478-.045.68H22.536c.1 1.268.548 2.25 1.344 2.945.795.694 1.948 1.042 3.459 1.042.886 0 1.696-.08 2.432-.242.735-.16 1.314-.332 1.737-.513l.483 2.99c-.201.101-.479.207-.83.318-.353.11-.756.211-1.209.302-.453.09-.942.166-1.465.226-.524.06-1.058.09-1.601.09-1.39 0-2.598-.206-3.625-.618-1.027-.413-1.873-.987-2.538-1.722-.664-.735-1.158-1.601-1.48-2.598-.323-.997-.484-2.09-.484-3.278zM37.64 8.156c.705-.2 1.62-.392 2.75-.574 1.127-.18 2.375-.271 3.745-.271 1.289 0 2.366.176 3.232.528.866.353 1.556.846 2.07 1.48.513.635.876 1.4 1.087 2.296.212.896.317 1.878.317 2.945v8.882h-3.655v-8.307c0-.846-.056-1.566-.166-2.16-.11-.594-.292-1.077-.544-1.45-.252-.373-.594-.645-1.027-.816-.433-.17-.962-.257-1.586-.257-.463 0-.947.03-1.45.09-.503.061-.876.112-1.118.152v12.748H37.64V8.156zM55.886 3.474l3.655-.604v4.773h5.619v3.05h-5.619v6.435c0 1.27.201 2.175.604 2.72.403.543 1.088.815 2.055.815.664 0 1.253-.07 1.767-.212.513-.14.921-.272 1.223-.392l.604 2.9c-.422.18-.977.367-1.661.559-.685.19-1.49.286-2.417.286-1.128 0-2.069-.15-2.824-.453-.756-.302-1.355-.74-1.798-1.314-.443-.574-.755-1.269-.936-2.084-.181-.816-.272-1.747-.272-2.794V3.474z" transform="translate(-61 -28) translate(61.5 28)"/>
                <path fill="#00A1E1" d="M75.008 20.874c1.128 0 1.984-.06 2.568-.18v-4.049c-.202-.06-.494-.12-.876-.181-.383-.06-.806-.09-1.27-.09-.402 0-.81.03-1.223.09-.412.06-.785.171-1.117.332-.333.161-.6.388-.8.68-.202.292-.303.66-.303 1.102 0 .867.272 1.465.816 1.798.544.332 1.279.498 2.205.498M74.706 7.25c1.209 0 2.225.151 3.051.453.826.302 1.485.725 1.979 1.269.493.544.846 1.204 1.057 1.979.211.775.317 1.626.317 2.552v9.576c-.564.121-1.415.268-2.552.439-1.138.17-2.422.256-3.852.256-.947 0-1.813-.09-2.598-.272-.785-.18-1.455-.473-2.009-.876-.554-.402-.987-.926-1.299-1.57-.312-.645-.468-1.44-.468-2.387 0-.906.176-1.671.529-2.296.352-.624.83-1.133 1.435-1.525.604-.393 1.303-.675 2.1-.846.794-.171 1.625-.257 2.491-.257.403 0 .826.025 1.269.075.443.051.916.136 1.42.257v-.604c0-.423-.05-.826-.151-1.208-.101-.383-.277-.72-.529-1.012-.252-.292-.584-.519-.997-.68-.412-.16-.931-.242-1.555-.242-.846 0-1.622.06-2.326.181-.706.121-1.28.263-1.722.424l-.454-2.96c.463-.162 1.138-.323 2.025-.484.885-.161 1.832-.242 2.839-.242M91.532 23.744c-1.087-.02-1.989-.141-2.703-.362-.716-.222-1.284-.539-1.707-.952-.423-.412-.72-.926-.891-1.54-.172-.615-.257-1.315-.257-2.1V.604L89.629 0v18.095c0 .443.035.816.106 1.118.07.302.196.559.378.77.18.212.427.373.74.483.312.111.71.197 1.193.257l-.514 3.021zM100.958 23.744c-1.088-.02-1.99-.141-2.704-.362-.715-.222-1.284-.539-1.707-.952-.423-.412-.72-.926-.891-1.54-.171-.615-.257-1.315-.257-2.1V.604L99.054 0v18.095c0 .443.035.816.106 1.118.07.302.196.559.378.77.18.212.427.373.74.483.312.111.71.197 1.193.257l-.513 3.021z" transform="translate(-61 -28) translate(61.5 28)"/>
                <path fill="#000" d="M117.947 22.896c.567 0 1.026-.324 1.026-.891v-.486c0-.567-.46-.891-1.026-.891h-7.425V4.536c0-.567-.46-1.026-1.026-1.026h-.54c-.567 0-1.026.459-1.026 1.026V21.87c0 .567.459 1.026 1.026 1.026h8.99zM127.966 3.51c.594 0 1.134.405 1.323.972l5.454 17.442c.027.081.027.135.027.216 0 .405-.324.756-.756.756h-.972c-.594 0-.891-.405-1.053-.972l-1.431-4.806h-6.94l-1.43 4.806c-.162.567-.486.972-1.053.972h-.81c-.432 0-.756-.351-.756-.756 0-.081 0-.135.027-.216l5.454-17.442c.162-.567.729-.972 1.323-.972zm-.837 2.16h-.054l-2.781 9.207h5.589l-2.754-9.207zM140.926 3.51c5.238 0 7.533 1.593 7.533 4.914 0 1.998-.972 3.402-2.89 4.158v.054c2.836.972 3.646 2.781 3.646 4.887 0 4.374-3.591 5.373-7.587 5.373h-5.157c-.567 0-1.026-.459-1.026-1.026V4.536c0-.567.459-1.026 1.026-1.026zm.918 10.341h-3.888v6.858h3.564c3.59 0 5.13-1.026 5.13-3.321 0-2.43-1.728-3.537-4.806-3.537zm-.932-8.127h-2.956v6.102h3.252c1.892-.016 4.686-.345 4.686-3.186 0-2.727-2.89-2.916-5.157-2.916z" transform="translate(-61 -28) translate(61.5 28)"/>
            </g>
        </g>
    </g>
</svg>
