<?xml version="1.0" encoding="UTF-8"?>
<svg width="626px" height="577px" viewBox="0 0 626 577" version="1.1" xmlns="http://www.w3.org/2000/svg" xmlns:xlink="http://www.w3.org/1999/xlink">
    <title>Group 7</title>
    <defs>
        <rect id="path-1" x="0" y="0" width="406" height="74.7234991" rx="15.3207547"></rect>
        <filter x="-13.1%" y="-44.2%" width="122.2%" height="220.4%" filterUnits="objectBoundingBox" id="filter-2">
            <feMorphology radius="3" operator="erode" in="SourceAlpha" result="shadowSpreadOuter1"></feMorphology>
            <feOffset dx="-8" dy="12" in="shadowSpreadOuter1" result="shadowOffsetOuter1"></feOffset>
            <feGaussianBlur stdDeviation="16" in="shadowOffsetOuter1" result="shadowBlurOuter1"></feGaussianBlur>
            <feColorMatrix values="0 0 0 0 0.266666667   0 0 0 0 0.482352941   0 0 0 0 1  0 0 0 0.124016608 0" type="matrix" in="shadowBlurOuter1"></feColorMatrix>
        </filter>
        <rect id="path-3" x="0" y="0" width="406" height="74.7234991" rx="15.3207547"></rect>
        <filter x="-13.1%" y="-44.2%" width="122.2%" height="220.4%" filterUnits="objectBoundingBox" id="filter-4">
            <feMorphology radius="3" operator="erode" in="SourceAlpha" result="shadowSpreadOuter1"></feMorphology>
            <feOffset dx="-8" dy="12" in="shadowSpreadOuter1" result="shadowOffsetOuter1"></feOffset>
            <feGaussianBlur stdDeviation="16" in="shadowOffsetOuter1" result="shadowBlurOuter1"></feGaussianBlur>
            <feColorMatrix values="0 0 0 0 0.266666667   0 0 0 0 0.482352941   0 0 0 0 1  0 0 0 0.124016608 0" type="matrix" in="shadowBlurOuter1"></feColorMatrix>
        </filter>
        <rect id="path-5" x="0" y="0" width="406" height="74.7234991" rx="15.3207547"></rect>
        <filter x="-13.1%" y="-44.2%" width="122.2%" height="220.4%" filterUnits="objectBoundingBox" id="filter-6">
            <feMorphology radius="3" operator="erode" in="SourceAlpha" result="shadowSpreadOuter1"></feMorphology>
            <feOffset dx="-8" dy="12" in="shadowSpreadOuter1" result="shadowOffsetOuter1"></feOffset>
            <feGaussianBlur stdDeviation="16" in="shadowOffsetOuter1" result="shadowBlurOuter1"></feGaussianBlur>
            <feColorMatrix values="0 0 0 0 0.266666667   0 0 0 0 0.482352941   0 0 0 0 1  0 0 0 0.124016608 0" type="matrix" in="shadowBlurOuter1"></feColorMatrix>
        </filter>
        <linearGradient x1="43.8327761%" y1="0%" x2="55.4090701%" y2="100%" id="linearGradient-7">
            <stop stop-color="#5AECFF" offset="0%"></stop>
            <stop stop-color="#5C8CF7" offset="100%"></stop>
        </linearGradient>
        <linearGradient x1="35.9102685%" y1="0%" x2="62.3576419%" y2="100%" id="linearGradient-8">
            <stop stop-color="#5AECFF" offset="0%"></stop>
            <stop stop-color="#5C8CF7" offset="100%"></stop>
        </linearGradient>
        <linearGradient x1="0%" y1="28.1928724%" x2="93.8533619%" y2="71.8071276%" id="linearGradient-9">
            <stop stop-color="#5AECFF" offset="0%"></stop>
            <stop stop-color="#5C8CF7" offset="100%"></stop>
        </linearGradient>
        <rect id="path-10" x="0" y="0" width="483.569432" height="89" rx="18.2479031"></rect>
        <filter x="-11.0%" y="-37.1%" width="118.6%" height="201.1%" filterUnits="objectBoundingBox" id="filter-11">
            <feMorphology radius="3" operator="erode" in="SourceAlpha" result="shadowSpreadOuter1"></feMorphology>
            <feOffset dx="-8" dy="12" in="shadowSpreadOuter1" result="shadowOffsetOuter1"></feOffset>
            <feGaussianBlur stdDeviation="16" in="shadowOffsetOuter1" result="shadowBlurOuter1"></feGaussianBlur>
            <feColorMatrix values="0 0 0 0 0.266666667   0 0 0 0 0.482352941   0 0 0 0 1  0 0 0 0.149694056 0" type="matrix" in="shadowBlurOuter1"></feColorMatrix>
        </filter>
    </defs>
    <g id="todo" stroke="none" stroke-width="1" fill="none" fill-rule="evenodd">
        <g id="Artboard-Copy" transform="translate(-769.000000, -122.000000)">
            <g id="Group-7" transform="translate(772.173882, 124.357986)">
                <g id="Group-2" transform="translate(161.401811, 136.847762)">
                    <g id="Group-3" transform="translate(-0.000000, 0.000000)">
                        <g id="Rectangle">
                            <use fill="black" fill-opacity="1" filter="url(#filter-2)" xlink:href="#path-1"></use>
                            <use fill="#FCFCFC" fill-rule="evenodd" xlink:href="#path-1"></use>
                        </g>
                        <g id="4.DataDisplay/8)Tag/Round/Default-32px" opacity="0.85035883" transform="translate(290.711321, 23.743301)" fill="#F64E5F">
                            <path d="M13.6184486,0 L70.6457023,0 C78.1669638,-3.15799016e-15 84.2641509,6.09718714 84.2641509,13.6184486 C84.2641509,21.1397101 78.1669638,27.2368973 70.6457023,27.2368973 L13.6184486,27.2368973 C6.09718714,27.2368973 9.21088882e-16,21.1397101 0,13.6184486 C-9.21088882e-16,6.09718714 6.09718714,-3.94723516e-16 13.6184486,0 Z" id="Rectangle-1152"></path>
                        </g>
                        <rect id="Rectangle" fill="#F4F4F4" x="30.5386991" y="26.2887827" width="74" height="22.236897" rx="1"></rect>
                        <rect id="Rectangle-Copy-5" fill="#F4F4F4" x="116.513267" y="26.2887827" width="60" height="22.236897" rx="1"></rect>
                        <rect id="Rectangle-Copy-6" fill="#F4F4F4" x="188.487835" y="26.2887827" width="75" height="22.236897" rx="1"></rect>
                    </g>
                    <g id="Group-3-Copy" transform="translate(-0.000000, 93.000000)">
                        <g id="Rectangle">
                            <use fill="black" fill-opacity="1" filter="url(#filter-4)" xlink:href="#path-3"></use>
                            <use fill="#FCFCFC" fill-rule="evenodd" xlink:href="#path-3"></use>
                        </g>
                        <path d="M304.329769,23.7433009 L361.357023,23.7433009 C368.878285,23.7433009 374.975472,29.8404881 374.975472,37.3617496 C374.975472,44.8830111 368.878285,50.9801982 361.357023,50.9801982 L304.329769,50.9801982 C296.808508,50.9801982 290.711321,44.8830111 290.711321,37.3617496 C290.711321,29.8404881 296.808508,23.7433009 304.329769,23.7433009 Z" id="Rectangle-1152" fill="#F64E5F" opacity="0.847633539"></path>
                        <rect id="Rectangle" fill="#F4F4F4" x="30.5386991" y="26.2887827" width="74" height="22.236897" rx="1"></rect>
                        <rect id="Rectangle-Copy-5" fill="#F4F4F4" x="116.513267" y="26.2887827" width="60" height="22.236897" rx="1"></rect>
                        <rect id="Rectangle-Copy-6" fill="#F4F4F4" x="188.487835" y="26.2887827" width="75" height="22.236897" rx="1"></rect>
                    </g>
                    <g id="Group-3-Copy-2" transform="translate(-0.000000, 184.000000)">
                        <g id="Rectangle">
                            <use fill="black" fill-opacity="1" filter="url(#filter-6)" xlink:href="#path-5"></use>
                            <use fill="#FCFCFC" fill-rule="evenodd" xlink:href="#path-5"></use>
                        </g>
                        <g id="4.DataDisplay/8)Tag/Round/Default-32px" transform="translate(290.711321, 23.743301)" fill="#F64E5F" opacity="0.854106105">
                            <path d="M13.6184486,0 L70.6457023,0 C78.1669638,-3.15799016e-15 84.2641509,6.09718714 84.2641509,13.6184486 C84.2641509,21.1397101 78.1669638,27.2368973 70.6457023,27.2368973 L13.6184486,27.2368973 C6.09718714,27.2368973 9.21088882e-16,21.1397101 0,13.6184486 C-9.21088882e-16,6.09718714 6.09718714,-3.94723516e-16 13.6184486,0 Z" id="Rectangle-1152"></path>
                        </g>
                        <rect id="Rectangle" fill="#F4F4F4" x="30.5386991" y="26.2887827" width="74" height="22.236897" rx="1"></rect>
                        <rect id="Rectangle-Copy-5" fill="#F4F4F4" x="116.513267" y="26.2887827" width="60" height="22.236897" rx="1"></rect>
                        <rect id="Rectangle-Copy-6" fill="#F4F4F4" x="188.487835" y="26.2887827" width="75" height="22.236897" rx="1"></rect>
                    </g>
                </g>
                <path d="M65.0350728,93.4753713 L65.0350728,471.402554 C65.0350728,486.314242 77.1233845,498.402554 92.0350728,498.402554 C92.0593125,498.402554 92.0835521,498.402522 92.1077917,498.402456 L157.401811,498.2266 L157.401811,498.2266" id="Path" stroke="#32B5FF" stroke-width="3.24093817" opacity="0.176121911" stroke-linejoin="round"></path>
                <path d="M65.0350728,93.4753713 L65.0350728,329.428107 C65.0350728,344.339796 77.1233845,356.428107 92.0350728,356.428107 C92.0508136,356.428107 92.0665545,356.428094 92.0822953,356.428066 L157.401811,356.313823 L157.401811,356.313823" id="Path" stroke="url(#linearGradient-7)" stroke-width="3.24093817" opacity="0.715070858"></path>
                <path d="M65.0350728,93.4753713 L65.0350728,240.444111 C65.0350728,255.355799 77.1233845,267.444111 92.0350728,267.444111 C92.0454869,267.444111 92.055901,267.444105 92.0663151,267.444093 L157.401811,267.368492 L157.401811,267.368492" id="Path" stroke="url(#linearGradient-8)" stroke-width="3.24093817"></path>
                <path d="M65.0350728,114.535073 L65.0350728,148.535073 C65.0241223,163.446761 77.112434,175.535073 92.0241223,175.535073 C92.0277732,175.535073 92.0314241,175.535072 92.0350706,175.52412 L157.401811,175.497604 L157.401811,175.497604" id="Path" stroke="url(#linearGradient-9)" stroke-width="3.24093817"></path>
                <path d="M147.175423,166.035073 C147.281604,166.035073 147.386326,166.076039 147.481297,166.154726 L147.481297,166.154726 L157.579136,174.521231 C157.916994,174.801161 158.053939,175.481947 157.885009,176.041808 C157.818828,176.261146 157.7115,176.438997 157.579136,176.548666 L157.579136,176.548666 L147.481297,184.915171 C147.143438,185.195102 146.732606,184.968173 146.563677,184.408313 C146.516192,184.250938 146.49147,184.077404 146.49147,183.901454 L146.49147,183.901454 L146.49132,177.034807 L129.862568,177.035073 C129.362639,177.035073 128.957366,176.3635 128.957366,175.535073 C128.957366,174.755377 129.316362,174.114624 129.775391,174.041939 L129.862568,174.035073 L146.49132,174.034807 L146.49147,167.168444 C146.49147,166.58423 146.758219,166.103257 147.100899,166.041723 L147.175423,166.035073 Z" id="Line" fill="#5CA4F9" fill-rule="nonzero"></path>
                <path d="M147.175423,257.975371 C147.281604,257.975371 147.386326,258.016337 147.481297,258.095024 L147.481297,258.095024 L157.579136,266.461529 C157.916994,266.74146 158.053939,267.422245 157.885009,267.982106 C157.818828,268.201444 157.7115,268.379296 157.579136,268.488965 L157.579136,268.488965 L147.481297,276.85547 C147.143438,277.1354 146.732606,276.908472 146.563677,276.348611 C146.516192,276.191236 146.49147,276.017702 146.49147,275.841752 L146.49147,275.841752 L146.49132,268.975195 L129.862568,268.975371 C129.362639,268.975371 128.957366,268.303798 128.957366,267.475371 C128.957366,266.695675 129.316362,266.054923 129.775391,265.982238 L129.862568,265.975371 L146.49132,265.975195 L146.49147,259.108742 C146.49147,258.524528 146.758219,258.043555 147.100899,257.982022 L147.175423,257.975371 Z" id="Line-Copy" fill="#5B93F7" fill-rule="nonzero"></path>
                <path d="M147.175423,346.975371 C147.281604,346.975371 147.386326,347.016337 147.481297,347.095024 L147.481297,347.095024 L157.579136,355.461529 C157.916994,355.74146 158.053939,356.422245 157.885009,356.982106 C157.818828,357.201444 157.7115,357.379296 157.579136,357.488965 L157.579136,357.488965 L147.481297,365.85547 C147.143438,366.1354 146.732606,365.908472 146.563677,365.348611 C146.516192,365.191236 146.49147,365.017702 146.49147,364.841752 L146.49147,364.841752 L146.49132,357.975284 L129.862568,357.975371 C129.362639,357.975371 128.957366,357.303798 128.957366,356.475371 C128.957366,355.695675 129.316362,355.054923 129.775391,354.982238 L129.862568,354.975371 L146.49132,354.975284 L146.49147,348.108742 C146.49147,347.524528 146.758219,347.043555 147.100899,346.982022 L147.175423,346.975371 Z" id="Line-Copy-2" fill="#8AB0FA" fill-rule="nonzero"></path>
                <path d="M146.619868,488.975371 C146.726048,488.975371 146.83077,489.016337 146.925741,489.095024 L146.925741,489.095024 L157.023581,497.461529 C157.361439,497.74146 157.498383,498.422245 157.329454,498.982106 C157.263272,499.201444 157.155944,499.379296 157.023581,499.488965 L157.023581,499.488965 L146.925741,507.85547 C146.587883,508.1354 146.177051,507.908472 146.008121,507.348611 C145.960636,507.191236 145.935915,507.017702 145.935915,506.841752 L145.935915,506.841752 L145.935765,499.974374 L129.307013,499.975371 C128.807083,499.975371 128.401811,499.303798 128.401811,498.475371 C128.401811,497.695675 128.760807,497.054923 129.219836,496.982238 L129.307013,496.975371 L145.935765,496.974374 L145.935915,490.108742 C145.935915,489.524528 146.202663,489.043555 146.545344,488.982022 L146.619868,488.975371 Z" id="Line-Copy-3" fill="#DEE8FF" fill-rule="nonzero"></path>
                <g id="Group" transform="translate(358.317381, 477.045160) rotate(-3.000000) translate(-358.317381, -477.045160) translate(116.532665, 432.545160)">
                    <g id="Rectangle-Copy-3">
                        <use fill="black" fill-opacity="1" filter="url(#filter-11)" xlink:href="#path-10"></use>
                        <use fill="#FFFFFF" fill-rule="evenodd" xlink:href="#path-10"></use>
                    </g>
                    <text id="病患-張Ｏ光" font-family="PingFangTC-Regular, PingFang TC" font-size="16.4231128" font-weight="normal" line-spacing="21.8974837" fill="#181C32">
                        <tspan x="36.2907735" y="50.5">病患 張Ｏ光</tspan>
                    </text>
                    <text id="林醫師-copy-3" font-family="PingFangTC-Regular, PingFang TC" font-size="16.4231128" font-weight="normal" line-spacing="21.8974837" fill="#181C32">
                        <tspan x="149.267474" y="50.5">林醫師</tspan>
                    </text>
                    <text id="技工所-阿華" font-family="PingFangTC-Regular, PingFang TC" font-size="16.4231128" font-weight="normal" line-spacing="21.8974837" fill="#181C32">
                        <tspan x="224.244175" y="50.5">技工所 阿華</tspan>
                    </text>
                    <g id="4.DataDisplay/8)Tag/Round/Default-32px-Copy-3" transform="translate(337.220876, 24.888114)">
                        <path d="M98.9292929,-0.595959596 C104.360093,-0.595959596 109.27676,1.60530705 112.835726,5.16427371 C116.394693,8.72324036 118.59596,13.639907 118.59596,19.0707071 C118.59596,24.5015071 116.394693,29.4181738 112.835726,32.9771404 C109.27676,36.5361071 104.360093,38.7373737 98.9292929,38.7373737 L98.9292929,38.7373737 L19.0707071,38.7373737 C13.639907,38.7373737 8.72324036,36.5361071 5.16427371,32.9771404 C1.60530705,29.4181738 -0.595959596,24.5015071 -0.595959596,19.0707071 C-0.595959596,13.639907 1.60530705,8.72324036 5.16427371,5.16427371 C8.72324036,1.60530705 13.639907,-0.595959596 19.0707071,-0.595959596 L19.0707071,-0.595959596 Z" id="Rectangle-1152" stroke="#FFFFFF" stroke-width="1.19191919" fill="#F64E5F"></path>
                        <text id="標籤" font-family="PingFangSC-Regular, PingFang SC" font-size="17.8787879" font-weight="normal" line-spacing="23.8383838" fill="#FFFFFF">
                            <tspan x="14.3030303" y="26.1515152">今日應交回</tspan>
                        </text>
                    </g>
                </g>
                <g id="iconfinder_click_cursor_finger_gesture_hand_pointer_press_1348652" transform="translate(539.219846, 501.624337)">
                    <polygon id="Path-2" fill="#FFFFFF" points="2.85052034 19.0855192 1.7771726 23.5 13.497087 35.9125265 14.3895518 43.1559942 18.1576759 45.8925964 33.7472914 44.8078416 37.9380191 29.7168765 37.0890097 19.0855192 14.3895518 2.08360404 11.8962997 5.55514525 11.8962997 23.5 5.25142976 19.0855192"></polygon>
                    <path d="M39.0397481,20.0887355 L39.0397481,32.9999202 C39.0397481,35.9554926 37.950853,38.7555086 35.9286192,40.9332987 L35.9286192,42.3333067 C35.9286192,44.8222098 33.9063855,47 31.261926,47 L18.1951848,47 C15.7062817,47 13.5284915,44.9777662 13.5284915,42.3333067 C13.5284915,41.3999681 14.3062737,40.7777423 15.084056,40.7777423 C15.8618382,40.7777423 16.6396204,41.3999681 16.6396204,42.3333067 C16.6396204,43.1110889 17.2618461,43.8888712 18.1951848,43.8888712 L31.261926,43.8888712 C32.0397082,43.8888712 32.8174904,43.2666454 32.8174904,42.3333067 L32.8174904,40.4666294 C32.8174904,40.311073 32.8174904,40.1555165 32.8174904,39.9999601 C32.8174904,39.8444037 32.8174904,39.8444037 32.8174904,39.8444037 C32.8174904,39.6888472 32.9730468,39.5332908 33.1286033,39.3777343 C34.8397241,37.6666135 35.7730628,35.4888233 35.7730628,33.1554766 L35.7730628,20.2442919 C35.7730628,19.7776226 35.6175063,19.4665097 35.3063935,19.1553968 C35.150837,18.9998404 34.5286113,18.533171 33.750829,18.6887275 C33.1286033,18.8442839 32.5063775,19.6220661 32.5063775,20.3998484 L32.5063775,24.133203 C32.5063775,25.0665416 31.7285953,25.6887674 30.9508131,25.6887674 C30.1730309,25.6887674 29.3952487,25.0665416 29.3952487,24.133203 L29.3952487,15.5775986 C29.3952487,15.1109293 29.2396922,14.7998164 28.9285793,14.4887035 C28.6174664,14.1775907 28.3063536,14.0220342 27.8396842,14.0220342 C27.061902,14.0220342 26.2841198,14.7998164 26.2841198,15.5775986 L26.2841198,24.133203 C26.2841198,25.0665416 25.5063376,25.6887674 24.7285554,25.6887674 C23.9507732,25.6887674 23.172991,25.0665416 23.172991,24.133203 L23.172991,10.9109054 C23.172991,10.444236 23.0174345,10.1331232 22.7063216,9.82201028 C22.3952087,9.51089739 22.0840959,9.35534095 21.6174265,9.35534095 C20.8396443,9.35534095 20.0618621,10.1331232 20.0618621,10.9109054 L20.0618621,24.133203 C20.0618621,25.0665416 19.2840799,25.6887674 18.5062977,25.6887674 C17.7285155,25.6887674 16.9507333,25.0665416 16.9507333,24.133203 L16.9507333,4.53309124 C16.9507333,4.06642191 16.7951768,3.75530902 16.4840639,3.44419614 C16.3285075,3.2886397 15.7062817,2.82197037 14.9284995,2.97752681 C14.3062737,3.13308325 13.684048,3.91086547 13.684048,4.68864768 L13.684048,23.6665336 C13.684048,24.2887594 13.3729351,24.9109852 12.7507093,25.0665416 C12.1284836,25.3776545 11.5062578,25.2220981 11.0395885,24.7554287 L6.99512095,20.7109612 C6.0617823,19.7776226 4.50621787,19.7776226 3.57287922,20.8665177 C2.79509701,21.7998563 2.95065345,23.1998643 3.88399211,24.133203 L14.7729431,35.0221539 C15.3951688,35.6443797 15.3951688,36.5777184 14.7729431,37.1999441 C14.4618302,37.511057 13.9951609,37.6666135 13.684048,37.6666135 C13.2173786,37.6666135 12.9062658,37.511057 12.5951529,37.1999441 L1.70620191,26.1554367 C-0.316031838,24.133203 -0.627144723,20.7109612 1.23953259,18.6887275 C2.32842768,17.444276 3.88399211,16.6664937 5.43955653,16.6664937 C6.83956451,16.6664937 8.23957249,17.2887195 9.32846759,18.2220582 L10.7284756,19.6220661 L10.7284756,4.84420412 C10.7284756,2.66641393 12.1284836,0.644180177 14.3062737,0.17751085 C15.8618382,-0.289158477 17.572959,0.17751085 18.6618541,1.42196239 C19.5951928,2.35530104 20.0618621,3.44419614 20.0618621,4.68864768 L20.0618621,6.55532499 C20.5285314,6.39976854 21.1507572,6.2442121 21.6174265,6.2442121 C22.8618781,6.2442121 23.9507732,6.71088143 24.8841118,7.64422008 C25.8174505,8.57755874 26.2841198,9.66645383 26.2841198,10.9109054 L26.2841198,11.2220183 C26.7507891,11.0664618 27.3730149,10.9109054 27.8396842,10.9109054 C29.0841358,10.9109054 30.1730309,11.3775747 31.1063695,12.3109134 C32.0397082,13.244252 32.5063775,14.3331471 32.5063775,15.5775986 L32.5063775,15.8887115 C32.6619339,15.8887115 32.8174904,15.7331551 32.9730468,15.7331551 C34.5286113,15.2664858 36.2397321,15.7331551 37.3286272,16.9776066 C38.5730788,17.7553888 39.0397481,18.9998404 39.0397481,20.0887355 Z" id="Path" fill="#75757E" fill-rule="nonzero"></path>
                    <path d="M13.2350994,34.8400919 C14.0950545,34.6258692 14.9653315,35.1142106 15.2405712,35.9412096 L15.2773188,36.0677539 L16.9861584,42.9275576 C17.2110922,43.8305104 16.6614491,44.7448431 15.7584963,44.9697769 C14.8985412,45.1839996 14.0282642,44.6956582 13.7530245,43.8686592 L13.7162769,43.7421148 L12.0074373,36.8823112 C11.7825035,35.9793584 12.3321465,35.0650256 13.2350994,34.8400919 Z" id="Path-3" fill="#75757E" fill-rule="nonzero"></path>
                </g>
                <circle id="Oval" fill="#32B5FF" cx="65.0350728" cy="65.0350728" r="50.5"></circle>
                <g id="Group-6" transform="translate(65.035073, 65.035073) rotate(-51.000000) translate(-65.035073, -65.035073) translate(18.795024, 18.795024)">
                    <g id="Group-5" transform="translate(-0.000000, 0.000000)" stroke="#FFFFFF" stroke-dasharray="122.42,99999" stroke-linecap="round" stroke-linejoin="round" stroke-width="3">
                        <path d="M46.2400488,87.7326959 C69.155805,87.7326959 87.7326959,69.155805 87.7326959,46.2400488 C87.7326959,23.3242926 69.155805,4.74740175 46.2400488,4.74740175 C23.3242926,4.74740175 4.74740175,23.3242926 4.74740175,46.2400488 C4.74740175,69.155805 23.3242926,87.7326959 46.2400488,87.7326959 Z" id="Oval" transform="translate(46.240049, 46.240049) rotate(-4.000000) translate(-46.240049, -46.240049) "></path>
                        <path d="M46.2400488,87.7326959 C69.155805,87.7326959 87.7326959,69.155805 87.7326959,46.2400488 C87.7326959,23.3242926 69.155805,4.74740175 46.2400488,4.74740175 C23.3242926,4.74740175 4.74740175,23.3242926 4.74740175,46.2400488 C4.74740175,69.155805 23.3242926,87.7326959 46.2400488,87.7326959 Z" id="Oval" transform="translate(46.240049, 46.240049) scale(-1, 1) rotate(-7.000000) translate(-46.240049, -46.240049) "></path>
                    </g>
                    <circle id="Oval" fill="#FFFFFF" cx="52.4446694" cy="5.21393315" r="3.25983814"></circle>
                    <circle id="Oval-Copy" fill="#FFFFFF" cx="40.5446694" cy="87.2661645" r="3.25983814"></circle>
                </g>
                <g id="icon" transform="translate(44.309748, 42.104926)" fill="#FFFFFF">
                    <path d="M16.0173913,18.6916659 C15.8733429,18.0125808 15.8363019,17.3511343 15.9227309,16.7223191 C16.0873576,15.4676285 16.7558596,14.3240609 17.8194657,13.4333129 C18.8742524,12.5499142 20.2797528,11.9393256 21.6105833,11.8299664 C22.9699295,11.7047325 24.4124709,12.0386895 25.5078264,12.750994 C26.0555041,13.1040595 26.5108733,13.54326 26.8301315,14.0347882 C26.8945123,14.1332703 26.9494859,14.235574 27.0026956,14.3378778 C26.328902,14.6233287 25.6518747,14.9064278 24.9769053,15.1865872 C23.7648412,15.6869347 22.5510133,16.179345 21.3330697,16.6626419 C19.5668604,17.3614234 17.7944777,18.0416845 16.0173913,18.6916659 M41.2041,11.8555423 L41.1573578,11.4589684 L41.1079698,11.1032571 C41.0665191,10.8228038 41.0235986,10.5808614 40.9706828,10.3183406 C40.8669092,9.80417612 40.7343259,9.29236347 40.573227,8.78701831 C39.9341226,6.76710754 38.7914369,4.84538483 37.2022014,3.3496337 C35.6220791,1.84623918 33.6153972,0.800859657 31.5184647,0.326675975 C29.4197683,-0.158972781 27.2458139,-0.0831269099 25.2476574,0.421630302 C23.5884555,0.844368141 22.0400826,1.53727015 20.6572183,2.430076 C19.3537277,1.60635457 17.9188296,0.938146563 16.3742784,0.518348486 C14.4890088,0.00124427219 12.4423462,-0.154563137 10.4289029,0.201442095 C8.41986921,0.549803944 6.45787176,1.40615674 4.83835663,2.71170525 C3.21208005,4.01019832 1.95268581,5.7378967 1.16071381,7.61434707 C0.762669977,8.55271924 0.473985305,9.52754447 0.286428462,10.510601 C0.11121862,11.4930696 0.0145004356,12.4443768 0.00185945706,13.4365466 C-0.0284200961,15.4044236 0.311122466,17.4149271 1.01931124,19.2716811 C1.71544699,21.1337266 2.78552051,22.8190924 3.98376769,24.2689832 C4.28097767,24.6326319 4.58671296,24.9821696 4.88274704,25.3137748 L5.31048248,25.7926621 C5.43924407,25.9370045 5.55977433,26.0760552 5.63679611,26.1730674 C5.66501783,26.2753711 5.69764919,26.4120701 5.72704682,26.5464172 C5.80906619,26.920355 5.88608796,27.3319217 5.96163986,27.7481921 L5.96222781,27.7481921 C6.0366038,28.1909203 6.11627136,28.6859763 6.20270038,29.2195432 C7.667584,38.2881224 9.25064608,45.7948058 13.8096297,45.7948058 C17.5472436,45.7948058 18.4732688,42.0454328 19.1494142,39.30822 C19.5148267,37.8304014 20.0145863,35.805787 20.6678015,35.805787 C21.3216046,35.805787 21.8213643,37.8304014 22.1858948,39.307632 C22.8626281,42.0454328 23.7883593,45.7948058 27.5268552,45.7948058 C29.9836147,45.7948058 31.9409085,43.4083066 33.5116236,38.4991973 C34.4764536,35.4806492 35.152305,31.8970788 35.3548546,28.8194415 C34.2283377,29.2918614 32.5559068,29.8718765 31.1856836,30.2416986 C30.9375676,32.3130552 30.4895478,34.5525662 29.9042411,36.5489589 C28.8647411,40.099016 27.8181857,41.461008 27.4283732,41.7567481 C26.8801075,41.547143 26.4076877,39.6342396 26.0884295,38.3439779 C25.4434456,35.7325869 24.4686203,31.7859558 20.6678015,31.7859558 C16.8675706,31.7859558 15.8927453,35.7325869 15.2477615,38.3442718 C14.9449659,39.5701528 14.4475581,41.584772 13.8887093,41.7626276 C13.6708729,41.5874178 12.815402,40.7013734 11.8417527,37.079586 C11.095053,34.3009226 10.5606042,30.9933959 10.1704977,28.578675 C10.0828928,28.0348189 10.0014614,27.5306497 9.92473361,27.0785142 L9.92473361,27.0773383 C9.8568251,26.6434294 9.78803466,26.2039349 9.69748997,25.7329849 C9.65045377,25.4925124 9.60459348,25.2570374 9.51757651,24.9416009 C9.49376443,24.8598755 9.46789452,24.7725645 9.42879568,24.6623235 C9.4088053,24.6076439 9.38616913,24.5470848 9.35294981,24.469475 C9.31855459,24.3918653 9.2838654,24.3104339 9.19831831,24.1646217 L9.14481463,24.0749589 L9.03486752,23.9082744 C8.98048191,23.8300767 8.929918,23.7606983 8.88229385,23.6986693 C8.69503098,23.454963 8.53892959,23.2738737 8.38929568,23.0995457 L7.96185423,22.6071355 C7.68904427,22.291699 7.43093313,21.9868457 7.18634489,21.6790525 C6.21063774,20.4546415 5.43630431,19.1705532 4.91684829,17.7979782 C4.39886214,16.4274609 4.15339198,14.9752183 4.17720406,13.493872 C4.18455346,12.7604012 4.26716079,11.9901835 4.39621636,11.2749393 C4.52409602,10.5620469 4.72047216,9.8712027 4.98857849,9.21798748 C5.5230273,7.91067513 6.34998248,6.75975813 7.41241262,5.88870652 C8.47278494,5.01500912 9.76245872,4.42441084 11.1479688,4.16453584 C12.5340668,3.90083915 14.0080636,3.9422898 15.4723593,4.23979376 C16.9372429,4.53906158 18.3983049,5.07527425 19.8190921,5.78258109 L20.8300764,6.28645638 L21.5173928,5.78258109 L21.5179808,5.78199314 C23.0263729,5.06557303 24.5512277,4.49643502 26.0925451,4.21686362 C27.628277,3.92964883 29.1698884,3.91436206 30.6089022,4.25184679 C32.046446,4.58727368 33.3616957,5.28987691 34.4070752,6.29292385 C35.4548066,7.29273706 36.2276701,8.58564458 36.67422,10.0220125 C36.786519,10.3806635 36.8800034,10.7481338 36.9534975,11.1229535 C36.9890686,11.3046309 37.0228759,11.5095323 37.0472759,11.6779807 L37.0893145,11.995769 L37.119888,12.2747525 C37.1989676,13.0543775 37.2030833,13.8322386 37.1337049,14.5971648 C36.9940662,16.1267232 36.538109,17.6030719 35.7881756,18.9180276 C35.040888,20.2335713 34.001976,21.3841944 32.7687456,22.2746484 C32.1490437,22.7229622 31.5005321,23.0957241 30.7855819,23.4143943 C30.0673979,23.7377682 29.3010018,24.0076384 28.5234347,24.2301784 C26.9659485,24.6720247 25.3423177,24.9080876 23.7860075,24.8666369 C22.2305792,24.8254803 20.747469,24.4903474 19.5401086,23.8065586 C18.9359874,23.4652522 18.3983049,23.0407505 17.9341164,22.5342294 C17.8744392,22.4701426 17.8200536,22.3992943 17.7627282,22.3313858 C19.4572073,21.7072742 21.1402213,21.0619964 22.8138281,20.398786 C24.0505861,19.9087276 25.2832285,19.408674 26.5114613,18.900977 C27.7435157,18.3915162 28.9602834,17.8797035 30.1970414,17.3434909 L31.5222864,16.7687673 L31.3961705,15.349744 L31.3961705,15.3453343 C31.3112114,14.1218052 30.908464,12.8906327 30.2476054,11.8564243 C29.5920383,10.8172183 28.7136373,9.96968474 27.7438097,9.33322617 C25.7959231,8.06236687 23.5111397,7.54496868 21.2636913,7.72223635 C20.9823561,7.7451665 20.7013148,7.77809184 20.4217434,7.82454009 C20.2797528,7.84894011 20.1509912,7.87128231 19.9922441,7.90508958 L19.7879306,7.95006794 L19.5897906,7.99710414 C19.0444647,8.13321514 18.5182472,8.31136475 18.0073165,8.52332162 C16.9875129,8.95017513 16.0285624,9.51754928 15.1601565,10.2333814 C14.2941025,10.9492136 13.5200631,11.8205592 12.9244672,12.8330134 C12.3265195,13.8416459 11.9287697,14.9934448 11.7726683,16.1599425 C11.6127452,17.3273222 11.689767,18.4952898 11.9211263,19.5806501 C12.1518976,20.6616007 12.5420041,21.698161 12.9838504,22.6041958 C13.4697931,23.6081246 14.0762661,24.5291522 14.8408983,25.3666905 C15.599651,26.1989373 16.5018641,26.9124176 17.4769833,27.4612713 C19.4383928,28.5680918 21.6091134,29.0081743 23.6672411,29.0660876 C25.7385977,29.1204732 27.7432217,28.8194415 29.6728818,28.2764674 C30.6382998,28.0036575 31.5837274,27.6608812 32.5176899,27.2366734 C33.456944,26.8124657 34.3864969,26.2744892 35.2313846,25.6544933 C36.9308613,24.4118557 38.3692871,22.8035117 39.4026136,20.9591047 C40.4403497,19.1173435 41.0606396,17.045399 41.2370253,14.9628713 C41.327276,13.9224893 41.3125772,12.8794616 41.2041,11.8555423" id="Fill-182"></path>
                </g>
            </g>
        </g>
    </g>
</svg>